<?xml version="1.0" standalone="no"?>
<!DOCTYPE svg PUBLIC "-//W3C//DTD SVG 20010904//EN"
 "http://www.w3.org/TR/2001/REC-SVG-20010904/DTD/svg10.dtd">
<svg version="1.0" xmlns="http://www.w3.org/2000/svg"
 width="848.000000pt" height="848.000000pt" viewBox="0 0 848.000000 848.000000"
 preserveAspectRatio="xMidYMid meet">
<metadata>
Created by potrace 1.14, written by Peter Selinger 2001-2017
</metadata>
<g transform="translate(0.000000,848.000000) scale(0.100000,-0.100000)"
fill="#000000" stroke="none">
<path d="M3978 7675 c-1 -1 -25 -6 -53 -9 -27 -4 -63 -9 -80 -12 -49 -8 -198
-44 -220 -54 -11 -5 -63 -25 -115 -46 -243 -94 -452 -246 -650 -474 -41 -47
-151 -213 -183 -275 -42 -82 -93 -198 -101 -227 -6 -26 -30 -38 -38 -19 -9 24
-313 164 -406 187 -9 2 -41 10 -70 18 -30 9 -70 18 -91 21 -20 3 -48 8 -61 11
-104 23 -395 22 -525 -1 -103 -18 -290 -70 -310 -85 -5 -5 -14 -9 -20 -11 -90
-20 -340 -163 -450 -258 -52 -45 -219 -215 -243 -246 -75 -102 -93 -128 -135
-198 -26 -43 -47 -79 -47 -82 0 -2 -15 -36 -34 -77 -30 -66 -72 -179 -81 -218
-2 -8 -9 -31 -14 -50 -10 -32 -18 -70 -38 -190 -9 -57 -9 -368 1 -440 12 -89
46 -234 66 -285 5 -11 14 -38 20 -60 30 -101 139 -304 223 -414 15 -20 37 -49
50 -66 57 -75 254 -260 316 -295 14 -8 28 -18 31 -21 26 -29 214 -131 310
-169 102 -39 109 -44 108 -65 0 -17 6 -85 17 -165 7 -50 26 -156 35 -195 5
-22 9 -41 10 -42 0 -2 0 -4 1 -5 0 -2 2 -14 5 -28 8 -47 34 -145 60 -225 72
-226 169 -439 291 -643 67 -112 212 -319 253 -363 8 -8 36 -40 62 -71 112
-131 276 -284 428 -401 41 -31 80 -62 87 -67 7 -6 56 -39 110 -73 186 -120
355 -207 547 -282 80 -31 266 -93 298 -99 13 -2 30 -7 38 -10 8 -3 26 -8 40
-10 14 -3 34 -7 45 -10 80 -18 121 -27 144 -30 14 -2 58 -9 96 -15 141 -21
214 -25 425 -26 264 0 370 10 630 60 131 25 468 130 482 150 4 5 8 6 8 2 0 -4
10 -2 23 5 12 6 28 13 35 14 22 4 274 132 357 182 44 26 91 54 105 62 14 8 27
17 30 20 3 3 46 34 95 70 165 118 351 285 485 436 85 97 96 109 140 169 25 33
47 62 50 65 11 10 138 206 165 255 15 28 30 52 34 55 5 4 72 136 76 150 1 3
15 34 32 70 16 36 41 94 55 130 14 36 29 74 33 85 5 11 9 22 10 25 1 3 15 50
32 105 50 158 97 366 108 475 2 25 6 59 9 75 2 17 6 46 8 65 3 35 4 35 98 68
105 35 262 110 327 154 23 15 46 28 51 28 6 0 12 3 14 8 2 4 30 27 63 52 93
69 186 155 267 248 36 41 138 179 138 187 0 4 8 19 18 33 38 54 139 269 148
312 0 3 3 12 7 20 13 34 44 153 52 200 2 14 6 35 9 47 13 59 19 161 19 288 -1
165 -6 215 -44 378 -22 91 -51 182 -62 194 -4 3 -7 13 -7 21 0 22 -107 229
-158 306 -66 100 -133 180 -226 269 -119 114 -134 127 -145 127 -5 0 -11 4
-13 9 -4 12 -141 102 -218 143 -86 46 -207 95 -300 123 -68 20 -107 29 -215
50 -90 18 -299 23 -428 11 -250 -23 -518 -116 -729 -254 l-76 -50 -27 76 c-30
85 -106 248 -142 302 -13 19 -29 44 -36 54 -169 262 -445 492 -742 618 -57 25
-216 76 -255 83 -18 3 -36 8 -40 10 -4 3 -27 7 -51 9 -24 3 -55 8 -69 12 -26
6 -375 15 -382 9z"/>
</g>
</svg>
